<?xml version="1.0" encoding="UTF-8" standalone="no"?>
<!-- Created with Inkscape (http://www.inkscape.org/) -->

<svg
   xmlns:dc="http://purl.org/dc/elements/1.1/"
   xmlns:cc="http://creativecommons.org/ns#"
   xmlns:rdf="http://www.w3.org/1999/02/22-rdf-syntax-ns#"
   xmlns:svg="http://www.w3.org/2000/svg"
   xmlns="http://www.w3.org/2000/svg"
   xmlns:sodipodi="http://sodipodi.sourceforge.net/DTD/sodipodi-0.dtd"
   xmlns:inkscape="http://www.inkscape.org/namespaces/inkscape"
   width="112.63812mm"
   height="96.256111mm"
   viewBox="0 0 112.63812 96.256111"
   version="1.1"
   id="svg8"
   inkscape:version="0.92.3 (2405546, 2018-03-11)"
   sodipodi:docname="key_shift.svg">
  <defs
     id="defs2" />
  <sodipodi:namedview
     id="base"
     pagecolor="#ffffff"
     bordercolor="#666666"
     borderopacity="1.0"
     inkscape:pageopacity="0.0"
     inkscape:pageshadow="2"
     inkscape:zoom="0.49497475"
     inkscape:cx="-101.35693"
     inkscape:cy="-214.92901"
     inkscape:document-units="mm"
     inkscape:current-layer="layer1"
     showgrid="false"
     showguides="false"
     fit-margin-top="0"
     fit-margin-left="0"
     fit-margin-right="0"
     fit-margin-bottom="0"
     inkscape:window-width="1920"
     inkscape:window-height="1017"
     inkscape:window-x="0"
     inkscape:window-y="30"
     inkscape:window-maximized="1" />
  <metadata
     id="metadata5">
    <rdf:RDF>
      <cc:Work
         rdf:about="">
        <dc:format>image/svg+xml</dc:format>
        <dc:type
           rdf:resource="http://purl.org/dc/dcmitype/StillImage" />
        <dc:title />
      </cc:Work>
    </rdf:RDF>
  </metadata>
  <g
     inkscape:label="Capa 1"
     inkscape:groupmode="layer"
     id="layer1"
     transform="translate(-41.055884,-41.90363)">
    <path
       style="fill:#69f0ae;stroke-width:0.26458335;fill-opacity:1"
       d="m 47.65302,137.89384 c -4.02316,-0.94819 -6.57265,-4.26108 -6.59711,-8.57249 -0.006,-1.02074 1.02681,-15.30995 2.29466,-31.753802 l 2.3052,-29.89791 3.72508,-9.19136 c 2.04879,-5.05525 3.75581,-9.16063 3.79337,-9.12307 0.0376,0.0376 -0.58569,12.36599 -1.385,27.39652 l -1.45328,27.328212 -2.87104,14.3386 c -1.57907,7.88622 -2.84103,14.36961 -2.80436,14.40753 0.0367,0.0379 1.78191,-4.30755 3.8783,-9.65659 2.09639,-5.34905 4.1688,-10.25334 4.60536,-10.89843 0.43826,-0.6476 1.26774,-1.41815 1.85209,-1.72049 1.05698,-0.5469 1.11113,-0.5476 42.46562,-0.5476 41.25081,0 41.41078,0.002 42.32946,0.54173 1.71129,1.00531 2.40925,2.3687 6.32975,12.36439 2.09678,5.34595 3.85184,9.68041 3.90012,9.63213 0.0483,-0.0483 -1.17314,-6.32977 -2.71426,-13.95885 l -2.80205,-13.87107 -1.49597,-27.702882 c -0.82278,-15.2366 -1.42226,-27.6191 -1.33216,-27.51667 0.0901,0.10243 1.79551,4.21605 3.78981,9.14138 l 3.626,8.95515 2.37704,30.73235 c 1.35627,17.535002 2.30892,31.281632 2.21841,32.011472 -0.48247,3.89038 -2.70545,6.49855 -6.34163,7.44049 -1.3957,0.36156 -7.15816,0.40545 -50.13854,0.38193 -27.12581,-0.0148 -49.00004,-0.12991 -49.55487,-0.26067 z m 10.72374,-33.34262 c -1.59972,-0.61709 -3.00706,-2.09281 -3.47028,-3.63892 -0.16889,-0.56369 -0.3046,-2.082642 -0.3016,-3.375442 0.0124,-5.31487 2.35908,-50.54191 2.67238,-51.50352 0.51918,-1.59354 1.9008,-2.99544 3.56621,-3.61854 1.46364,-0.54763 1.5926,-0.5493 36.96912,-0.47964 l 35.50037,0.0699 1.05833,0.57109 c 1.99508,1.07655 3.23937,2.89583 3.46455,5.06553 0.32191,3.10173 2.466,51.43252 2.31653,52.21776 -0.36789,1.932612 -1.59286,3.570322 -3.39983,4.545372 l -1.05833,0.57108 -37.96771,0.0542 c -37.49426,0.0536 -37.98495,0.0476 -39.34974,-0.47888 z"
       id="path828"
       inkscape:connector-curvature="0"
       sodipodi:nodetypes="ccscssscscsccscssscssscscccccccccsccscscccc" />
    <path
       style="fill:#0d1f17;fill-opacity:1;stroke:none;stroke-width:0.26458332px;stroke-linecap:butt;stroke-linejoin:miter;stroke-opacity:1"
       d="m 80.648889,69.368071 h 9.638392 v 22.2061 h 16.819939 v -22.2061 h 8.88244 L 98.69725,51.944977 Z"
       id="path905"
       inkscape:connector-curvature="0"
       sodipodi:nodetypes="cccccccc" />
  </g>
</svg>
