<?xml version="1.0" encoding="UTF-8" standalone="no"?>
<!-- Created with Inkscape (http://www.inkscape.org/) -->

<svg
   xmlns:dc="http://purl.org/dc/elements/1.1/"
   xmlns:cc="http://creativecommons.org/ns#"
   xmlns:rdf="http://www.w3.org/1999/02/22-rdf-syntax-ns#"
   xmlns:svg="http://www.w3.org/2000/svg"
   xmlns="http://www.w3.org/2000/svg"
   xmlns:sodipodi="http://sodipodi.sourceforge.net/DTD/sodipodi-0.dtd"
   xmlns:inkscape="http://www.inkscape.org/namespaces/inkscape"
   width="112.63812mm"
   height="96.256111mm"
   viewBox="0 0 112.63812 96.256111"
   version="1.1"
   id="svg8"
   inkscape:version="0.92.3 (2405546, 2018-03-11)"
   sodipodi:docname="key_ctrl.svg">
  <defs
     id="defs2" />
  <sodipodi:namedview
     id="base"
     pagecolor="#ffffff"
     bordercolor="#666666"
     borderopacity="1.0"
     inkscape:pageopacity="0.0"
     inkscape:pageshadow="2"
     inkscape:zoom="0.7"
     inkscape:cx="-429.76096"
     inkscape:cy="183.16518"
     inkscape:document-units="mm"
     inkscape:current-layer="layer1"
     showgrid="false"
     showguides="false"
     fit-margin-top="0"
     fit-margin-left="0"
     fit-margin-right="0"
     fit-margin-bottom="0"
     inkscape:window-width="1920"
     inkscape:window-height="1017"
     inkscape:window-x="0"
     inkscape:window-y="30"
     inkscape:window-maximized="1" />
  <metadata
     id="metadata5">
    <rdf:RDF>
      <cc:Work
         rdf:about="">
        <dc:format>image/svg+xml</dc:format>
        <dc:type
           rdf:resource="http://purl.org/dc/dcmitype/StillImage" />
        <dc:title></dc:title>
      </cc:Work>
    </rdf:RDF>
  </metadata>
  <g
     inkscape:label="Capa 1"
     inkscape:groupmode="layer"
     id="layer1"
     transform="translate(-41.055884,-41.90363)">
    <path
       style="fill:#69f0ae;stroke-width:0.26458335;fill-opacity:1"
       d="m 47.65302,137.89384 c -4.02316,-0.94819 -6.57265,-4.26108 -6.59711,-8.57249 -0.006,-1.02074 1.02681,-15.30995 2.29466,-31.753802 l 2.3052,-29.89791 3.72508,-9.19136 c 2.04879,-5.05525 3.75581,-9.16063 3.79337,-9.12307 0.0376,0.0376 -0.58569,12.36599 -1.385,27.39652 l -1.45328,27.328212 -2.87104,14.3386 c -1.57907,7.88622 -2.84103,14.36961 -2.80436,14.40753 0.0367,0.0379 1.78191,-4.30755 3.8783,-9.65659 2.09639,-5.34905 4.1688,-10.25334 4.60536,-10.89843 0.43826,-0.6476 1.26774,-1.41815 1.85209,-1.72049 1.05698,-0.5469 1.11113,-0.5476 42.46562,-0.5476 41.25081,0 41.41078,0.002 42.32946,0.54173 1.71129,1.00531 2.40925,2.3687 6.32975,12.36439 2.09678,5.34595 3.85184,9.68041 3.90012,9.63213 0.0483,-0.0483 -1.17314,-6.32977 -2.71426,-13.95885 l -2.80205,-13.87107 -1.49597,-27.702882 c -0.82278,-15.2366 -1.42226,-27.6191 -1.33216,-27.51667 0.0901,0.10243 1.79551,4.21605 3.78981,9.14138 l 3.626,8.95515 2.37704,30.73235 c 1.35627,17.535002 2.30892,31.281632 2.21841,32.011472 -0.48247,3.89038 -2.70545,6.49855 -6.34163,7.44049 -1.3957,0.36156 -7.15816,0.40545 -50.13854,0.38193 -27.12581,-0.0148 -49.00004,-0.12991 -49.55487,-0.26067 z m 10.72374,-33.34262 c -1.59972,-0.61709 -3.00706,-2.09281 -3.47028,-3.63892 -0.16889,-0.56369 -0.3046,-2.082642 -0.3016,-3.375442 0.0124,-5.31487 2.35908,-50.54191 2.67238,-51.50352 0.51918,-1.59354 1.9008,-2.99544 3.56621,-3.61854 1.46364,-0.54763 1.5926,-0.5493 36.96912,-0.47964 l 35.50037,0.0699 1.05833,0.57109 c 1.99508,1.07655 3.23937,2.89583 3.46455,5.06553 0.32191,3.10173 2.466,51.43252 2.31653,52.21776 -0.36789,1.932612 -1.59286,3.570322 -3.39983,4.545372 l -1.05833,0.57108 -37.96771,0.0542 c -37.49426,0.0536 -37.98495,0.0476 -39.34974,-0.47888 z"
       id="path828"
       inkscape:connector-curvature="0"
       sodipodi:nodetypes="ccscssscscsccscssscssscscccccccccsccscscccc" />
    <g
       aria-label="Ctrl"
       transform="matrix(0.86029419,0,-0.10705055,0.86029419,-125.62798,-131.68954)"
       style="font-style:normal;font-variant:normal;font-weight:normal;font-stretch:normal;font-size:40px;line-height:1.25;font-family:'Grim Ghost';-inkscape-font-specification:'Grim Ghost';letter-spacing:0px;word-spacing:0px;fill:#0d1f17;fill-opacity:1;stroke:none"
       id="flowRoot830">
      <path
         d="m 275.34883,245.55151 q 0.52,1.12 0.84,2.32 0.36,1.16 0.52,2.36 -2.08,0.76 -3.76,1 -1.64,0.24 -3.56,0.24 -3.4,0 -5.96,-1.08 -2.56,-1.12 -4.32,-3.08 -1.72,-2 -2.6,-4.72 -0.88,-2.72 -0.88,-5.92 0,-3.2 0.92,-5.92 0.92,-2.76 2.64,-4.76 1.76,-2 4.28,-3.12 2.56,-1.12 5.8,-1.12 1.92,0 3.52,0.24 1.64,0.24 3.52,1 -0.08,1.2 -0.48,2.36 -0.4,1.12 -0.88,2.28 -1.4,-0.48 -2.48,-0.68 -1.08,-0.2 -2.56,-0.2 -3.84,0 -5.92,2.52 -2.04,2.48 -2.04,7.4 0,9.76 8.28,9.76 1.48,0 2.6,-0.2 1.12,-0.2 2.52,-0.68 z"
         style="font-style:normal;font-variant:normal;font-weight:normal;font-stretch:normal;font-family:Aller;-inkscape-font-specification:Aller;fill:#0d1f17;fill-opacity:1"
         id="path915" />
      <path
         d="m 280.81508,234.63151 h -2.6 l -0.2,-0.8 7.48,-9.56 h 0.92 v 6.04 h 4.84 q 0.12,0.6 0.16,1.08 0.04,0.48 0.04,1 0,0.56 -0.04,1.08 -0.04,0.52 -0.16,1.16 h -4.84 v 8.12 q 0,1.24 0.2,2 0.2,0.76 0.56,1.2 0.4,0.44 0.96,0.6 0.56,0.16 1.32,0.16 0.6,0 1.16,-0.08 0.6,-0.12 1.04,-0.2 0.28,0.76 0.4,1.6 0.12,0.8 0.12,1.44 0,0.44 -0.04,0.76 0,0.28 -0.04,0.56 -1.84,0.44 -3.8,0.44 -3.64,0 -5.56,-1.68 -1.92,-1.72 -1.92,-5.56 z"
         style="font-style:normal;font-variant:normal;font-weight:normal;font-stretch:normal;font-family:Aller;-inkscape-font-specification:Aller;fill:#0d1f17;fill-opacity:1"
         id="path917" />
      <path
         d="m 295.56758,230.31151 q 0.6,-0.12 1.12,-0.16 0.56,-0.08 1.2,-0.08 0.6,0 1.16,0.08 0.6,0.08 1.16,0.2 0.12,0.2 0.2,0.6 0.12,0.36 0.2,0.8 0.08,0.4 0.12,0.84 0.08,0.4 0.12,0.68 0.88,-1.24 2.16,-2.2 1.28,-1 3.2,-1 0.4,0 0.92,0.04 0.52,0.04 0.76,0.12 0.08,0.4 0.12,0.92 0.04,0.52 0.04,1.08 0,0.68 -0.08,1.48 -0.04,0.8 -0.2,1.52 -0.44,-0.08 -1,-0.08 -0.52,0 -0.64,0 -0.68,0 -1.52,0.16 -0.84,0.12 -1.6,0.72 -0.76,0.6 -1.28,1.8 -0.48,1.2 -0.48,3.36 v 9.84 q -0.72,0.12 -1.44,0.16 -0.72,0.04 -1.4,0.04 -0.68,0 -1.4,-0.04 -0.68,-0.04 -1.44,-0.16 z"
         style="font-style:normal;font-variant:normal;font-weight:normal;font-stretch:normal;font-family:Aller;-inkscape-font-specification:Aller;fill:#0d1f17;fill-opacity:1"
         id="path919" />
      <path
         d="m 311.50133,221.75151 q 1.44,-0.24 2.84,-0.24 1.36,0 2.8,0.24 v 21 q 0,1.24 0.12,2 0.16,0.76 0.44,1.2 0.32,0.4 0.8,0.56 0.48,0.16 1.2,0.16 0.32,0 0.68,-0.04 0.4,-0.04 0.76,-0.12 0.44,1.64 0.44,3.2 0,0.32 0,0.6 0,0.24 -0.08,0.56 -0.64,0.2 -1.56,0.28 -0.88,0.08 -1.64,0.08 -3.08,0 -4.96,-1.68 -1.84,-1.72 -1.84,-5.56 z"
         style="font-style:normal;font-variant:normal;font-weight:normal;font-stretch:normal;font-family:Aller;-inkscape-font-specification:Aller;fill:#0d1f17;fill-opacity:1"
         id="path921" />
    </g>
  </g>
</svg>
